<svg viewBox="0 0 20 20" fill="none" xmlns="http://www.w3.org/2000/svg">
<path fill-rule="evenodd" clip-rule="evenodd" d="M6.5417 8.41665C6.5417 6.50667 8.09005 4.95832 10 4.95832C11.91 4.95832 13.4584 6.50667 13.4584 8.41665C13.4584 10.3266 11.91 11.875 10 11.875C8.09005 11.875 6.5417 10.3266 6.5417 8.41665ZM10 6.04165C8.68835 6.04165 7.62503 7.10497 7.62503 8.41665C7.62503 9.72833 8.68835 10.7917 10 10.7917C11.3117 10.7917 12.375 9.72833 12.375 8.41665C12.375 7.10497 11.3117 6.04165 10 6.04165Z" fill="#505050"/>
<path fill-rule="evenodd" clip-rule="evenodd" d="M9.68634 2.60827C12.4135 2.44358 15.3102 4.03316 15.7406 7.55591C15.7709 7.80398 15.7892 8.03468 15.7921 8.2424C15.8078 9.36435 15.4512 10.4996 14.9411 11.5486C14.4292 12.6015 13.7468 13.5998 13.0724 14.4576C12.3969 15.3169 11.721 16.0457 11.2144 16.5594C10.9368 16.8409 10.6555 17.1194 10.3597 17.3819C10.1546 17.5635 9.84571 17.563 9.6407 17.3814C9.67787 17.3403 9.64086 17.3815 9.6407 17.3814C9.34557 17.1186 9.06394 16.8407 8.78654 16.5594C8.27999 16.0457 7.60406 15.3169 6.92851 14.4576C6.25415 13.5998 5.57181 12.6015 5.05988 11.5486C4.54978 10.4996 4.19316 9.36435 4.20887 8.2424C4.25851 4.69786 6.9605 2.77289 9.68634 2.60827ZM10.0005 16.2359C9.8776 16.1178 9.72773 15.9709 9.55793 15.7987C9.07129 15.3052 8.42416 14.6072 7.78016 13.788C7.13498 12.9674 6.50131 12.0357 6.03415 11.0749C5.56517 10.1104 5.27963 9.1484 5.2921 8.25757C5.33217 5.39633 7.46793 3.82755 9.75164 3.68964C12.0341 3.5518 14.3187 4.85091 14.6653 7.68729C14.6924 7.90943 14.7067 8.09963 14.7089 8.25757C14.7213 9.1484 14.4358 10.1104 13.9668 11.0749C13.4997 12.0357 12.866 12.9674 12.2208 13.788C11.5768 14.6072 10.9297 15.3052 10.443 15.7987C10.2732 15.9709 10.1233 16.1178 10.0005 16.2359Z" fill="#505050"/>
</svg>
