<svg viewBox="0 0 20 20" fill="none" xmlns="http://www.w3.org/2000/svg">
<path fill-rule="evenodd" clip-rule="evenodd" d="M14.7083 2.7917C16.089 2.7917 17.2083 3.91099 17.2083 5.2917V13.625C17.2083 15.0057 16.089 16.125 14.7083 16.125H8.04158C6.66087 16.125 5.54158 15.0057 5.54158 13.625V5.2917C5.54158 3.91099 6.66087 2.7917 8.04158 2.7917H14.7083ZM8.04158 3.87504H14.7083C15.4907 3.87504 16.1249 4.5093 16.1249 5.2917V13.625C16.1249 14.4074 15.4907 15.0417 14.7083 15.0417H8.04158C7.25918 15.0417 6.62492 14.4074 6.62492 13.625V5.2917C6.62492 4.5093 7.25918 3.87504 8.04158 3.87504ZM3.33325 7.7917C3.33325 7.49255 3.57576 7.25004 3.87492 7.25004C4.17407 7.25004 4.41658 7.49255 4.41658 7.7917V15.625C4.41658 16.5225 5.14412 17.25 6.04158 17.25H13.0416C13.3407 17.25 13.5833 17.4925 13.5833 17.7917C13.5833 18.0909 13.3407 18.3334 13.0416 18.3334H6.04158C4.54581 18.3334 3.33325 17.1208 3.33325 15.625V7.7917ZM11.687 6.58127C11.687 6.88042 11.4445 7.12294 11.1454 7.12294L8.89189 7.12293C8.59273 7.12293 8.35022 6.88042 8.35022 6.58126C8.35022 6.28211 8.59273 6.0396 8.89189 6.0396L11.1454 6.0396C11.4445 6.0396 11.687 6.28212 11.687 6.58127ZM13.8568 10.0478C14.1559 10.0478 14.3984 9.80532 14.3984 9.50617C14.3984 9.20702 14.1559 8.9645 13.8568 8.9645L8.89189 8.96451C8.59273 8.96451 8.35022 9.20702 8.35022 9.50617C8.35022 9.80533 8.59273 10.0478 8.89189 10.0478L13.8568 10.0478ZM14.3984 12.4311C14.3984 12.7303 14.1559 12.9728 13.8568 12.9728L8.89189 12.9728C8.59273 12.9728 8.35022 12.7303 8.35022 12.4311C8.35022 12.1319 8.59273 11.8894 8.89189 11.8894L13.8568 11.8894C14.1559 11.8894 14.3984 12.1319 14.3984 12.4311Z" fill="#505050"/>
</svg>
