<svg viewBox="0 0 20 20" fill="none" xmlns="http://www.w3.org/2000/svg">
<path fill-rule="evenodd" clip-rule="evenodd" d="M13.3335 10C13.3335 11.8409 11.8411 13.3333 10.0001 13.3333C8.15917 13.3333 6.66678 11.8409 6.66678 10C6.66678 8.15905 8.15917 6.66666 10.0001 6.66666C11.8411 6.66666 13.3335 8.15905 13.3335 10ZM12.2501 10C12.2501 11.2426 11.2428 12.25 10.0001 12.25C8.75748 12.25 7.75012 11.2426 7.75012 10C7.75012 8.75736 8.75748 7.75 10.0001 7.75C11.2428 7.75 12.2501 8.75736 12.2501 10Z" fill="#505050"/>
<path fill-rule="evenodd" clip-rule="evenodd" d="M9.15266 2.5041C8.41457 2.5041 7.78951 3.0484 7.68803 3.77948C7.56219 4.68615 6.61659 5.23209 5.76847 4.88774C5.08459 4.61008 4.30069 4.87925 3.93165 5.51846L3.13437 6.89939C2.7698 7.53084 2.91995 8.33379 3.48806 8.79084C4.22273 9.38188 4.21064 10.5217 3.45639 11.1089C2.87399 11.5623 2.71514 12.3758 3.08419 13.015L3.88147 14.3959C4.24604 15.0274 5.01649 15.2988 5.69636 15.0353C6.57555 14.6946 7.55662 15.275 7.68803 16.2218C7.78951 16.9529 8.41457 17.4972 9.15266 17.4972H10.7472C11.4764 17.4972 12.0967 16.9657 12.2084 16.2452C12.3604 15.2653 13.3793 14.6771 14.3039 15.0353C14.9837 15.2988 15.7542 15.0274 16.1188 14.3959L16.916 13.015C17.2851 12.3758 17.1262 11.5623 16.5438 11.1089C15.7896 10.5217 15.7775 9.38188 16.5122 8.79084C17.0803 8.33379 17.2304 7.53084 16.8659 6.89939L16.0686 5.51846C15.6995 4.87925 14.9156 4.61008 14.2318 4.88774C13.3461 5.24733 12.3529 4.68789 12.2084 3.75614C12.0967 3.03561 11.4764 2.5041 10.7472 2.5041H9.15266ZM8.76108 3.92842C8.78821 3.73296 8.95533 3.58744 9.15266 3.58744L10.7472 3.58744C10.9422 3.58744 11.108 3.72954 11.1379 3.92218C11.3915 5.55738 13.1181 6.50912 14.6393 5.8915C14.8221 5.81726 15.0317 5.88923 15.1304 6.06012L15.9277 7.44106C16.0251 7.60988 15.985 7.82455 15.8331 7.94675C14.5438 8.984 14.5829 10.9552 15.8783 11.9637C16.034 12.0849 16.0765 12.3024 15.9778 12.4733L15.1806 13.8543C15.0831 14.0231 14.8771 14.0957 14.6953 14.0252C13.1257 13.4169 11.3959 14.4157 11.1379 16.0791C11.108 16.2718 10.9422 16.4139 10.7472 16.4139H9.15266C8.95533 16.4139 8.78821 16.2683 8.76108 16.0729C8.53537 14.4467 6.84784 13.4273 5.30489 14.0252C5.12312 14.0957 4.91714 14.0231 4.81967 13.8543L4.02239 12.4733C3.92372 12.3024 3.96619 12.0849 4.1219 11.9637C5.41736 10.9552 5.45644 8.984 4.16712 7.94675C4.01523 7.82455 3.97509 7.60988 4.07256 7.44106L4.86984 6.06012C4.96851 5.88923 5.17809 5.81726 5.36093 5.8915C6.86322 6.50145 8.53817 5.53442 8.76108 3.92842Z" fill="#505050"/>
</svg>
